<svg width="12" height="17" viewBox="0 0 12 17" fill="none" xmlns="http://www.w3.org/2000/svg">
<path d="M5.83333 0C2.60833 0 0 2.60833 0 5.83333C0 10.2083 5.83333 16.6667 5.83333 16.6667C5.83333 16.6667 11.6667 10.2083 11.6667 5.83333C11.6667 2.60833 9.05833 0 5.83333 0ZM1.66667 5.83333C1.66667 3.53333 3.53333 1.66667 5.83333 1.66667C8.13333 1.66667 10 3.53333 10 5.83333C10 8.23333 7.6 11.825 5.83333 14.0667C4.1 11.8417 1.66667 8.20833 1.66667 5.83333Z" fill="#2C5DEB"/>
<path d="M5.83333 7.91667C6.98393 7.91667 7.91667 6.98393 7.91667 5.83333C7.91667 4.68274 6.98393 3.75 5.83333 3.75C4.68274 3.75 3.75 4.68274 3.75 5.83333C3.75 6.98393 4.68274 7.91667 5.83333 7.91667Z" fill="#2C5DEB"/>
</svg>
